<svg width="132" height="42" viewBox="0 0 132 42" fill="none" xmlns="http://www.w3.org/2000/svg">
<g clip-path="url(#clip0_229_7297)">
<path d="M33.5522 30.465H38.1475C39.8661 30.465 41.0617 29.6927 41.0617 28.1113C41.0617 26.5299 39.8661 25.7576 38.1475 25.7576H33.5522V30.465ZM33.5522 38.6662H39.6793C42.9297 38.6662 44.6109 37.0113 44.6109 33.8117V30.465H44.4988C43.5648 33.2601 41.1364 34.1059 38.2596 34.1059H33.7016C33.5896 34.1059 33.5522 34.1427 33.5522 34.253V38.6662ZM24.9219 28.1113L29.6293 32.5981V23.6245L24.9219 28.1113ZM8.93159 38.6662H29.6293V37.6365C29.6293 35.8344 30.2645 34.8047 31.7215 34.253V34.1427H25.9306C25.6318 34.1427 25.5197 34.1059 25.2955 33.8853L22.2693 30.796L19.131 33.922C18.9816 34.0691 18.8695 34.1427 18.5706 34.1427H13.9005C13.639 34.1427 13.639 33.9956 13.7885 33.8485L19.7661 28.1481L13.6764 22.3374C13.5269 22.1902 13.5643 22.0431 13.8258 22.0431H18.5333C18.7948 22.0431 18.9069 22.0799 19.0563 22.2638L22.344 25.5002L25.445 22.2638C25.5944 22.1167 25.7065 22.0431 25.9306 22.0431H38.2223C41.0617 22.0431 43.5648 22.9626 44.4988 25.7576H44.6109V7.47954C44.6109 4.27996 42.9297 2.625 39.6793 2.625H8.93159C5.68122 2.625 4 4.27996 4 7.47954V33.8485C4 37.0113 5.68122 38.6662 8.93159 38.6662Z" fill="#1F1F1F"/>
</g>
<defs>
<clipPath id="clip0_229_7297">
<rect width="40.5736" height="36.0412" fill="white" transform="translate(4 2.625)"/>
</clipPath>
</defs>
</svg>
