<svg width="20" height="21" viewBox="0 0 20 21" fill="none" xmlns="http://www.w3.org/2000/svg">
<circle cx="10" cy="10" r="9.5" stroke="#707070"/>
<path d="M10.07 5.116C10.994 5.116 11.7407 5.37733 12.31 5.9C12.8793 6.42267 13.164 7.12267 13.164 8C13.164 8.98 12.8607 9.708 12.254 10.184C11.6473 10.6507 10.826 10.884 9.79 10.884L9.748 12.214H8.642L8.586 10.002H8.992C9.916 10.002 10.6393 9.862 11.162 9.582C11.6847 9.302 11.946 8.77467 11.946 8C11.946 7.44 11.778 6.99667 11.442 6.67C11.106 6.34333 10.6533 6.18 10.084 6.18C9.50533 6.18 9.048 6.33867 8.712 6.656C8.38533 6.964 8.222 7.38867 8.222 7.93H7.018C7.018 7.37 7.144 6.88 7.396 6.46C7.648 6.03067 8.00267 5.69933 8.46 5.466C8.92667 5.23267 9.46333 5.116 10.07 5.116ZM9.188 15.084C8.94533 15.084 8.74 15 8.572 14.832C8.404 14.664 8.32 14.4587 8.32 14.216C8.32 13.9733 8.404 13.768 8.572 13.6C8.74 13.432 8.94533 13.348 9.188 13.348C9.42133 13.348 9.61733 13.432 9.776 13.6C9.944 13.768 10.028 13.9733 10.028 14.216C10.028 14.4587 9.944 14.664 9.776 14.832C9.61733 15 9.42133 15.084 9.188 15.084Z" fill="#707070"/>
</svg>
