<svg width="519" height="427" viewBox="0 0 519 427" fill="none" xmlns="http://www.w3.org/2000/svg">
<circle cx="256" cy="227" r="200" fill="#F5F5F5"/>
<rect width="188.893" height="188.859" transform="matrix(0.94695 -0.321381 0 1 95.053 80.7068)" fill="#DBDBDB"/>
<rect width="151.114" height="188.859" transform="matrix(0.942663 0.333747 0 1 273.925 20)" fill="#DBDBDB"/>
<rect width="188.893" height="74.888" transform="matrix(0.94723 -0.320555 0.942371 0.334569 95 80.5507)" fill="url(#paint0_linear_2_178)"/>
<rect width="188.893" height="75.2758" transform="matrix(0.94723 -0.320555 0.942371 0.334569 166.565 106.014)" fill="url(#paint1_linear_2_178)"/>
<rect width="188.893" height="188.859" transform="matrix(0.94695 -0.321381 0 1 237.503 131.137)" fill="url(#paint2_linear_2_178)"/>
<rect width="151.114" height="188.859" transform="matrix(0.942663 0.333747 0 1 95.053 80.7068)" fill="url(#paint3_linear_2_178)"/>
<circle cx="24" cy="24" r="24" fill="#F5F5F5"/>
<circle cx="34" cy="394" r="24" fill="#F5F5F5"/>
<circle cx="456" cy="386" r="16" fill="#F5F5F5"/>
<circle cx="457" cy="46" r="16" fill="#F5F5F5"/>
<circle cx="495" cy="124" r="24" fill="#F5F5F5"/>
<circle cx="260" cy="337" r="66" fill="#13130F" fill-opacity="0.32"/>
<path d="M256.5 357.333C267.454 357.333 276.333 348.454 276.333 337.5C276.333 326.546 267.454 317.667 256.5 317.667C245.546 317.667 236.667 326.546 236.667 337.5C236.667 348.454 245.546 357.333 256.5 357.333Z" stroke="white" stroke-width="2" stroke-linejoin="round"/>
<path d="M263.1 329.734C261.411 328.045 259.078 327 256.5 327C253.923 327 251.589 328.045 249.901 329.734" stroke="white" stroke-width="2" stroke-linecap="round" stroke-linejoin="round"/>
<path d="M270.759 351.759L280.658 361.658" stroke="white" stroke-width="2" stroke-linecap="round" stroke-linejoin="round"/>
<defs>
<linearGradient id="paint0_linear_2_178" x1="94.4467" y1="-2.41453e-07" x2="97.5079" y2="74.7627" gradientUnits="userSpaceOnUse">
<stop stop-color="#E7EDF9"/>
<stop offset="1" stop-color="#EEF0F4"/>
</linearGradient>
<linearGradient id="paint1_linear_2_178" x1="94.4467" y1="-2.42703e-07" x2="97.5396" y2="75.1485" gradientUnits="userSpaceOnUse">
<stop stop-color="#EEF0F4"/>
<stop offset="1" stop-color="#E7EDF9"/>
</linearGradient>
<linearGradient id="paint2_linear_2_178" x1="94.4467" y1="0" x2="94.4467" y2="188.859" gradientUnits="userSpaceOnUse">
<stop stop-color="#EEF0F4"/>
<stop offset="1" stop-color="#DFE2E8"/>
</linearGradient>
<linearGradient id="paint3_linear_2_178" x1="75.5572" y1="0" x2="75.5572" y2="188.859" gradientUnits="userSpaceOnUse">
<stop stop-color="#EEF0F4"/>
<stop offset="1" stop-color="#DCDEE2"/>
</linearGradient>
</defs>
</svg>
